<?xml version="1.0" encoding="UTF-8"?>
<svg width="512px" height="512px" viewBox="0 0 512 512" version="1.1" xmlns="http://www.w3.org/2000/svg" xmlns:xlink="http://www.w3.org/1999/xlink">
    <title>Unlocked Icon</title>
    <g stroke="none" stroke-width="1" fill="none" fill-rule="evenodd">
        <path d="M368,192h-16v-80c0-70.7-57.3-128-128-128s-128,57.3-128,128v48h16v-48c0-61.8,50.2-112,112-112s112,50.2,112,112v80H128c-17.7,0-32,14.3-32,32v224c0,17.7,14.3,32,32,32h224c17.7,0,32-14.3,32-32V224C384,206.3,369.7,192,368,192z M368,432c0,8.8-7.2,16-16,16H144c-8.8,0-16-7.2-16-16V240c0-8.8,7.2-16,16-16h208c8.8,0,16,7.2,16,16V432z" fill="#0d6efd" fill-rule="nonzero"></path>
        <path d="M240,352c0,8.8,7.2,16,16,16s16-7.2,16-16c0-8.8-7.2-16-16-16S240,343.2,240,352z M240,304v16c0,8.8,7.2,16,16,16s16-7.2,16-16v-16c0-17.7-14.3-32-32-32S208,286.3,208,304v16c0,8.8,7.2,16,16,16s16-7.2,16-16v-16c0-8.8,7.2-16,16-16S240,295.2,240,304z" fill="#0d6efd" fill-rule="nonzero"></path>
    </g>
</svg> 