<svg xmlns="http://www.w3.org/2000/svg" viewBox="0 0 200 200">
  <!-- House outline -->
  <path d="M100,20 L20,80 L20,180 L180,180 L180,80 Z" fill="none" stroke="#1a2e44" stroke-width="8"/>
  
  <!-- Roof -->
  <path d="M100,20 L180,80 L160,80 L160,50 L140,50 L140,65 L100,35 Z" fill="#1a2e44"/>
  
  <!-- Windows -->
  <rect x="60" y="90" width="15" height="15" fill="#1a2e44"/>
  <rect x="85" y="90" width="15" height="15" fill="#1a2e44"/>
  
  <!-- Bluetooth symbol in blue circle -->
  <circle cx="100" cy="130" r="25" fill="#0d6efd"/>
  <path d="M100,115 L110,125 L100,135 L100,145 L115,130 L100,115 M100,115 L100,105 L115,90 L100,75 L100,85 L110,95 L100,105" fill="white" stroke="white" stroke-width="1"/>
</svg>